<svg width="34" height="34" viewBox="0 0 34 34" fill="none" xmlns="http://www.w3.org/2000/svg">
<circle cx="17" cy="17" r="17" fill="#D9D9D9"/>
<circle cx="17" cy="17" r="17" fill="url(#paint0_linear_64_3)"/>
<path d="M17 6C14.0149 6 13.6395 6.01375 12.4666 6.066C11.2938 6.121 10.4949 6.30525 9.795 6.5775C9.06088 6.85363 8.39593 7.28676 7.84663 7.84663C7.2871 8.39621 6.85402 9.06108 6.5775 9.795C6.30525 10.4935 6.11963 11.2937 6.066 12.4625C6.01375 13.6381 6 14.0121 6 17.0014C6 19.9879 6.01375 20.3619 6.066 21.5347C6.121 22.7063 6.30525 23.5051 6.5775 24.205C6.85938 24.9282 7.23475 25.5415 7.84663 26.1534C8.45713 26.7652 9.07037 27.142 9.79363 27.4225C10.4949 27.6947 11.2924 27.8804 12.4639 27.934C13.6381 27.9862 14.0121 28 17 28C19.9879 28 20.3605 27.9862 21.5347 27.934C22.7049 27.879 23.5065 27.6947 24.2064 27.4225C24.94 27.1462 25.6045 26.7131 26.1534 26.1534C26.7652 25.5415 27.1406 24.9282 27.4225 24.205C27.6934 23.5051 27.879 22.7063 27.934 21.5347C27.9862 20.3619 28 19.9879 28 17C28 14.0121 27.9862 13.6381 27.934 12.4639C27.879 11.2938 27.6934 10.4935 27.4225 9.795C27.146 9.06106 26.7129 8.39618 26.1534 7.84663C25.6042 7.28655 24.9392 6.85339 24.205 6.5775C23.5037 6.30525 22.7035 6.11963 21.5334 6.066C20.3591 6.01375 19.9865 6 16.9973 6H17ZM16.0141 7.98275H17.0014C19.9384 7.98275 20.2863 7.99238 21.4454 8.046C22.5179 8.09413 23.1009 8.27425 23.4886 8.42412C24.0015 8.6235 24.3686 8.86275 24.7536 9.24775C25.1386 9.63275 25.3765 9.9985 25.5759 10.5128C25.7271 10.8991 25.9059 11.4821 25.954 12.5546C26.0076 13.7138 26.0186 14.0616 26.0186 16.9973C26.0186 19.9329 26.0076 20.2821 25.954 21.4412C25.9059 22.5138 25.7257 23.0954 25.5759 23.4831C25.3995 23.9607 25.118 24.3926 24.7522 24.7467C24.3672 25.1318 24.0015 25.3696 23.4873 25.569C23.1023 25.7203 22.5192 25.899 21.4454 25.9485C20.2863 26.0007 19.9384 26.0131 17.0014 26.0131C14.0644 26.0131 13.7151 26.0007 12.556 25.9485C11.4835 25.899 10.9019 25.7203 10.5141 25.569C10.0363 25.3929 9.60405 25.1119 9.24913 24.7467C8.88303 24.392 8.60112 23.9598 8.42412 23.4818C8.27425 23.0954 8.09413 22.5124 8.046 21.4399C7.99375 20.2808 7.98275 19.9329 7.98275 16.9945C7.98275 14.0575 7.99375 13.711 8.046 12.5519C8.0955 11.4794 8.27425 10.8964 8.4255 10.5086C8.62488 9.99575 8.86412 9.62862 9.24913 9.24362C9.63412 8.85862 9.99988 8.62075 10.5141 8.42138C10.9019 8.27013 11.4835 8.09138 12.556 8.04188C13.5708 7.99513 13.964 7.98138 16.0141 7.98V7.98275ZM22.8726 9.80875C22.6993 9.80875 22.5276 9.84289 22.3675 9.90923C22.2073 9.97557 22.0618 10.0728 21.9392 10.1954C21.8167 10.3179 21.7194 10.4635 21.6531 10.6236C21.5868 10.7838 21.5526 10.9554 21.5526 11.1287C21.5526 11.3021 21.5868 11.4737 21.6531 11.6339C21.7194 11.794 21.8167 11.9396 21.9392 12.0621C22.0618 12.1847 22.2073 12.2819 22.3675 12.3483C22.5276 12.4146 22.6993 12.4488 22.8726 12.4488C23.2227 12.4488 23.5585 12.3097 23.806 12.0621C24.0536 11.8146 24.1926 11.4788 24.1926 11.1287C24.1926 10.7787 24.0536 10.4429 23.806 10.1954C23.5585 9.94782 23.2227 9.80875 22.8726 9.80875ZM17.0014 11.3515C16.2521 11.3398 15.508 11.4773 14.8123 11.7559C14.1167 12.0346 13.4835 12.4488 12.9495 12.9746C12.4155 13.5003 11.9914 14.127 11.7019 14.8182C11.4124 15.5094 11.2634 16.2513 11.2634 17.0007C11.2634 17.7501 11.4124 18.4919 11.7019 19.1831C11.9914 19.8743 12.4155 20.5011 12.9495 21.0268C13.4835 21.5525 14.1167 21.9668 14.8123 22.2454C15.508 22.5241 16.2521 22.6616 17.0014 22.6499C18.4844 22.6267 19.8988 22.0214 20.9393 20.9645C21.9799 19.9076 22.5631 18.4839 22.5631 17.0007C22.5631 15.5175 21.9799 14.0938 20.9393 13.0369C19.8988 11.98 18.4844 11.3746 17.0014 11.3515ZM17.0014 13.3329C17.4829 13.3329 17.9598 13.4277 18.4047 13.612C18.8496 13.7963 19.2539 14.0664 19.5944 14.407C19.9349 14.7475 20.2051 15.1517 20.3894 15.5967C20.5736 16.0416 20.6685 16.5184 20.6685 17C20.6685 17.4816 20.5736 17.9584 20.3894 18.4033C20.2051 18.8483 19.9349 19.2525 19.5944 19.593C19.2539 19.9336 18.8496 20.2037 18.4047 20.388C17.9598 20.5723 17.4829 20.6671 17.0014 20.6671C16.0288 20.6671 15.096 20.2808 14.4083 19.593C13.7206 18.9053 13.3342 17.9726 13.3342 17C13.3342 16.0274 13.7206 15.0947 14.4083 14.407C15.096 13.7192 16.0288 13.3329 17.0014 13.3329Z" fill="white"/>
<defs>
<linearGradient id="paint0_linear_64_3" x1="17" y1="0" x2="17" y2="34" gradientUnits="userSpaceOnUse">
<stop stop-color="#E9C566"/>
<stop offset="1" stop-color="#A88730"/>
</linearGradient>
</defs>
</svg>
