<svg width="124" height="124" viewBox="0 0 124 124" fill="none" xmlns="http://www.w3.org/2000/svg">
<path d="M124 62.3773C124 27.9189 96.25 0 62 0C27.75 0 0 27.9189 0 62.3773C0 93.5106 22.6725 119.317 52.3125 124V80.4088H36.5625V62.3773H52.3125V48.6342C52.3125 33.0021 61.5625 24.3674 75.73 24.3674C82.515 24.3674 89.61 25.5847 89.61 25.5847V40.9275H81.79C74.09 40.9275 71.6875 45.7366 71.6875 50.669V62.3773H88.8825L86.1325 80.4088H71.6875V124C101.327 119.317 124 93.5106 124 62.3773Z" fill="black"/>
<path d="M124 62.3773C124 27.9189 96.25 0 62 0C27.75 0 0 27.9189 0 62.3773C0 93.5106 22.6725 119.317 52.3125 124V80.4088H36.5625V62.3773H52.3125V48.6342C52.3125 33.0021 61.5625 24.3674 75.73 24.3674C82.515 24.3674 89.61 25.5847 89.61 25.5847V40.9275H81.79C74.09 40.9275 71.6875 45.7366 71.6875 50.669V62.3773H88.8825L86.1325 80.4088H71.6875V124C101.327 119.317 124 93.5106 124 62.3773Z" fill="url(#paint0_linear_2301_11)"/>
<defs>
<linearGradient id="paint0_linear_2301_11" x1="62" y1="0" x2="62" y2="124" gradientUnits="userSpaceOnUse">
<stop stop-color="#E9C566"/>
<stop offset="1" stop-color="#A88730"/>
</linearGradient>
</defs>
</svg>
