<svg width="124" height="124" viewBox="0 0 124 124" fill="none" xmlns="http://www.w3.org/2000/svg">
<path fill-rule="evenodd" clip-rule="evenodd" d="M62 124C96.2417 124 124 96.2417 124 62C124 27.7583 96.2417 0 62 0C27.7583 0 0 27.7583 0 62C0 96.2417 27.7583 124 62 124ZM45.4665 22.123C49.7441 21.9325 51.1131 21.8823 62 21.8823H61.99C72.8919 21.8823 74.2509 21.9325 78.5335 22.123C82.801 22.3186 85.7196 22.9956 88.2771 23.9885C90.9549 24.9947 93.3802 26.5744 95.3829 28.6171C97.4236 30.6213 99.0031 33.0462 100.011 35.7229C100.999 38.2704 101.676 41.1889 101.877 45.4564C102.068 49.739 102.118 51.103 102.118 62C102.118 72.8969 102.068 74.2609 101.877 78.5385C101.676 82.811 100.999 85.7245 100.011 88.277C98.9835 90.9147 97.6144 93.1513 95.3829 95.3829C93.3811 97.4242 90.9577 99.0039 88.2821 100.011C85.7296 101.004 82.806 101.676 78.5385 101.877C74.256 102.067 72.897 102.118 62 102.118C51.1031 102.118 49.7391 102.067 45.4565 101.877C41.184 101.681 38.2754 101.004 35.7179 100.011C33.0802 98.9884 30.8436 97.6144 28.6171 95.3829C26.3856 93.1513 25.0165 90.9147 23.9885 88.277C22.9956 85.7245 22.3237 82.811 22.1231 78.5385C21.9325 74.2609 21.8824 72.8969 21.8824 62.005C21.8824 51.103 21.9325 49.739 22.1231 45.4514C22.3186 41.1889 22.9956 38.2704 23.9885 35.7229C24.997 33.0462 26.5765 30.6214 28.6171 28.6171C30.6204 26.5752 33.0456 24.9955 35.7229 23.9885C38.2754 22.9956 41.189 22.3236 45.4665 22.123ZM62.005 29.1135H58.4045V29.1035C50.9275 29.1085 49.4933 29.1586 45.7925 29.3291C41.881 29.5097 39.7598 30.1616 38.3456 30.7132C36.4701 31.4403 35.1362 32.3079 33.7321 33.712C32.328 35.1161 31.4554 36.455 30.7283 38.3255C30.1767 39.7397 29.5248 41.8659 29.3442 45.7774C29.1537 50.0048 29.1136 51.2685 29.1136 61.9799C29.1136 72.6963 29.1537 73.965 29.3442 78.1924C29.5198 82.1039 30.1767 84.2301 30.7233 85.6393C31.3688 87.3827 32.3969 88.9592 33.7321 90.2528C35.0265 91.5846 36.603 92.6093 38.3456 93.2516C39.7598 93.8032 41.881 94.4551 45.7925 94.6357C50.0199 94.8262 51.2936 94.8714 62.005 94.8714C72.7164 94.8714 73.9852 94.8262 78.2125 94.6357C82.129 94.4551 84.2553 93.8032 85.6594 93.2516C87.5349 92.5245 88.8688 91.6569 90.2729 90.2528C91.607 88.9612 92.6336 87.3862 93.2767 85.6443C93.8233 84.2301 94.4803 82.1089 94.6558 78.1975C94.8513 73.9701 94.8915 72.6963 94.8915 61.9899C94.8915 51.2835 94.8513 50.0148 94.6558 45.7874C94.4803 41.8759 93.8283 39.7497 93.2767 38.3406C92.5496 36.4651 91.6821 35.1312 90.2779 33.727C88.8738 32.3229 87.5349 31.4504 85.6644 30.7232C84.2503 30.1766 82.124 29.5197 78.2125 29.3442C73.9852 29.1486 72.7164 29.1135 62.005 29.1135ZM81.5755 36.1395C82.1596 35.8976 82.7856 35.773 83.4178 35.773C84.6946 35.773 85.9191 36.2802 86.8219 37.1831C87.7247 38.0859 88.2319 39.3104 88.2319 40.5872C88.2319 41.8639 87.7247 43.0884 86.8219 43.9913C85.9191 44.8941 84.6946 45.4013 83.4178 45.4013C82.7856 45.4013 82.1596 45.2768 81.5755 45.0348C80.9915 44.7929 80.4608 44.4383 80.0137 43.9913C79.5667 43.5442 79.2121 43.0135 78.9701 42.4294C78.7282 41.8454 78.6037 41.2194 78.6037 40.5872C78.6037 39.955 78.7282 39.329 78.9701 38.7449C79.2121 38.1608 79.5667 37.6301 80.0137 37.1831C80.4608 36.736 80.9915 36.3814 81.5755 36.1395ZM54.0215 42.8746C56.5585 41.8583 59.2724 41.3569 62.005 41.3995C67.4136 41.4839 72.5721 43.6917 76.367 47.5463C80.162 51.4009 82.289 56.5932 82.289 62.0025C82.289 67.4117 80.162 72.604 76.367 76.4586C72.5721 80.3132 67.4136 82.521 62.005 82.6054C59.2724 82.648 56.5585 82.1466 54.0215 81.1303C51.4845 80.1141 49.175 78.6033 47.2274 76.6859C45.2799 74.7685 43.7333 72.4829 42.6775 69.962C41.6218 67.4411 41.0782 64.7355 41.0782 62.0025C41.0782 59.2695 41.6218 56.5638 42.6775 54.0429C43.7333 51.5221 45.2799 49.2364 47.2274 47.319C49.175 45.4016 51.4845 43.8908 54.0215 42.8746ZM67.1231 49.6438C65.5005 48.9717 63.7613 48.6257 62.005 48.6257C58.458 48.6257 55.0562 50.0348 52.548 52.543C50.0399 55.0511 48.6308 58.4529 48.6308 62C48.6308 65.547 50.0399 68.9488 52.548 71.457C55.0562 73.9651 58.458 75.3742 62.005 75.3742C63.7613 75.3742 65.5005 75.0282 67.1231 74.3561C68.7458 73.684 70.2201 72.6989 71.462 71.457C72.7039 70.215 73.6891 68.7407 74.3612 67.118C75.0333 65.4954 75.3792 63.7563 75.3792 62C75.3792 60.2436 75.0333 58.5045 74.3612 56.8819C73.6891 55.2592 72.7039 53.7849 71.462 52.543C70.2201 51.301 68.7458 50.3159 67.1231 49.6438Z" fill="#D9D9D9"/>
<path fill-rule="evenodd" clip-rule="evenodd" d="M62 124C96.2417 124 124 96.2417 124 62C124 27.7583 96.2417 0 62 0C27.7583 0 0 27.7583 0 62C0 96.2417 27.7583 124 62 124ZM45.4665 22.123C49.7441 21.9325 51.1131 21.8823 62 21.8823H61.99C72.8919 21.8823 74.2509 21.9325 78.5335 22.123C82.801 22.3186 85.7196 22.9956 88.2771 23.9885C90.9549 24.9947 93.3802 26.5744 95.3829 28.6171C97.4236 30.6213 99.0031 33.0462 100.011 35.7229C100.999 38.2704 101.676 41.1889 101.877 45.4564C102.068 49.739 102.118 51.103 102.118 62C102.118 72.8969 102.068 74.2609 101.877 78.5385C101.676 82.811 100.999 85.7245 100.011 88.277C98.9835 90.9147 97.6144 93.1513 95.3829 95.3829C93.3811 97.4242 90.9577 99.0039 88.2821 100.011C85.7296 101.004 82.806 101.676 78.5385 101.877C74.256 102.067 72.897 102.118 62 102.118C51.1031 102.118 49.7391 102.067 45.4565 101.877C41.184 101.681 38.2754 101.004 35.7179 100.011C33.0802 98.9884 30.8436 97.6144 28.6171 95.3829C26.3856 93.1513 25.0165 90.9147 23.9885 88.277C22.9956 85.7245 22.3237 82.811 22.1231 78.5385C21.9325 74.2609 21.8824 72.8969 21.8824 62.005C21.8824 51.103 21.9325 49.739 22.1231 45.4514C22.3186 41.1889 22.9956 38.2704 23.9885 35.7229C24.997 33.0462 26.5765 30.6214 28.6171 28.6171C30.6204 26.5752 33.0456 24.9955 35.7229 23.9885C38.2754 22.9956 41.189 22.3236 45.4665 22.123ZM62.005 29.1135H58.4045V29.1035C50.9275 29.1085 49.4933 29.1586 45.7925 29.3291C41.881 29.5097 39.7598 30.1616 38.3456 30.7132C36.4701 31.4403 35.1362 32.3079 33.7321 33.712C32.328 35.1161 31.4554 36.455 30.7283 38.3255C30.1767 39.7397 29.5248 41.8659 29.3442 45.7774C29.1537 50.0048 29.1136 51.2685 29.1136 61.9799C29.1136 72.6963 29.1537 73.965 29.3442 78.1924C29.5198 82.1039 30.1767 84.2301 30.7233 85.6393C31.3688 87.3827 32.3969 88.9592 33.7321 90.2528C35.0265 91.5846 36.603 92.6093 38.3456 93.2516C39.7598 93.8032 41.881 94.4551 45.7925 94.6357C50.0199 94.8262 51.2936 94.8714 62.005 94.8714C72.7164 94.8714 73.9852 94.8262 78.2125 94.6357C82.129 94.4551 84.2553 93.8032 85.6594 93.2516C87.5349 92.5245 88.8688 91.6569 90.2729 90.2528C91.607 88.9612 92.6336 87.3862 93.2767 85.6443C93.8233 84.2301 94.4803 82.1089 94.6558 78.1975C94.8513 73.9701 94.8915 72.6963 94.8915 61.9899C94.8915 51.2835 94.8513 50.0148 94.6558 45.7874C94.4803 41.8759 93.8283 39.7497 93.2767 38.3406C92.5496 36.4651 91.6821 35.1312 90.2779 33.727C88.8738 32.3229 87.5349 31.4504 85.6644 30.7232C84.2503 30.1766 82.124 29.5197 78.2125 29.3442C73.9852 29.1486 72.7164 29.1135 62.005 29.1135ZM81.5755 36.1395C82.1596 35.8976 82.7856 35.773 83.4178 35.773C84.6946 35.773 85.9191 36.2802 86.8219 37.1831C87.7247 38.0859 88.2319 39.3104 88.2319 40.5872C88.2319 41.8639 87.7247 43.0884 86.8219 43.9913C85.9191 44.8941 84.6946 45.4013 83.4178 45.4013C82.7856 45.4013 82.1596 45.2768 81.5755 45.0348C80.9915 44.7929 80.4608 44.4383 80.0137 43.9913C79.5667 43.5442 79.2121 43.0135 78.9701 42.4294C78.7282 41.8454 78.6037 41.2194 78.6037 40.5872C78.6037 39.955 78.7282 39.329 78.9701 38.7449C79.2121 38.1608 79.5667 37.6301 80.0137 37.1831C80.4608 36.736 80.9915 36.3814 81.5755 36.1395ZM54.0215 42.8746C56.5585 41.8583 59.2724 41.3569 62.005 41.3995C67.4136 41.4839 72.5721 43.6917 76.367 47.5463C80.162 51.4009 82.289 56.5932 82.289 62.0025C82.289 67.4117 80.162 72.604 76.367 76.4586C72.5721 80.3132 67.4136 82.521 62.005 82.6054C59.2724 82.648 56.5585 82.1466 54.0215 81.1303C51.4845 80.1141 49.175 78.6033 47.2274 76.6859C45.2799 74.7685 43.7333 72.4829 42.6775 69.962C41.6218 67.4411 41.0782 64.7355 41.0782 62.0025C41.0782 59.2695 41.6218 56.5638 42.6775 54.0429C43.7333 51.5221 45.2799 49.2364 47.2274 47.319C49.175 45.4016 51.4845 43.8908 54.0215 42.8746ZM67.1231 49.6438C65.5005 48.9717 63.7613 48.6257 62.005 48.6257C58.458 48.6257 55.0562 50.0348 52.548 52.543C50.0399 55.0511 48.6308 58.4529 48.6308 62C48.6308 65.547 50.0399 68.9488 52.548 71.457C55.0562 73.9651 58.458 75.3742 62.005 75.3742C63.7613 75.3742 65.5005 75.0282 67.1231 74.3561C68.7458 73.684 70.2201 72.6989 71.462 71.457C72.7039 70.215 73.6891 68.7407 74.3612 67.118C75.0333 65.4954 75.3792 63.7563 75.3792 62C75.3792 60.2436 75.0333 58.5045 74.3612 56.8819C73.6891 55.2592 72.7039 53.7849 71.462 52.543C70.2201 51.301 68.7458 50.3159 67.1231 49.6438Z" fill="url(#paint0_linear_2301_13)"/>
<defs>
<linearGradient id="paint0_linear_2301_13" x1="62" y1="0" x2="62" y2="124" gradientUnits="userSpaceOnUse">
<stop stop-color="#E9C566"/>
<stop offset="1" stop-color="#A88730"/>
</linearGradient>
</defs>
</svg>
