<svg width="124" height="124" viewBox="0 0 124 124" fill="none" xmlns="http://www.w3.org/2000/svg">
<path d="M62 0C27.776 0 0 27.776 0 62C0 96.224 27.776 124 62 124C96.224 124 124 96.224 124 62C124 27.776 96.224 0 62 0ZM90.768 42.16C89.838 51.956 85.808 75.764 83.762 86.738C82.894 91.388 81.158 92.938 79.546 93.124C75.95 93.434 73.222 90.768 69.75 88.474C64.294 84.878 61.194 82.646 55.924 79.174C49.786 75.144 53.754 72.912 57.288 69.316C58.218 68.386 74.09 53.94 74.4 52.638C74.4431 52.4408 74.4373 52.2361 74.3833 52.0416C74.3293 51.8471 74.2286 51.6687 74.09 51.522C73.718 51.212 73.222 51.336 72.788 51.398C72.23 51.522 63.55 57.288 46.624 68.696C44.144 70.37 41.912 71.238 39.928 71.176C37.696 71.114 33.48 69.936 30.318 68.882C26.412 67.642 23.374 66.96 23.622 64.79C23.746 63.674 25.296 62.558 28.21 61.38C46.314 53.506 58.342 48.298 64.356 45.818C81.592 38.626 85.126 37.386 87.482 37.386C87.978 37.386 89.156 37.51 89.9 38.13C90.52 38.626 90.706 39.308 90.768 39.804C90.706 40.176 90.83 41.292 90.768 42.16Z" fill="black"/>
<path d="M62 0C27.776 0 0 27.776 0 62C0 96.224 27.776 124 62 124C96.224 124 124 96.224 124 62C124 27.776 96.224 0 62 0ZM90.768 42.16C89.838 51.956 85.808 75.764 83.762 86.738C82.894 91.388 81.158 92.938 79.546 93.124C75.95 93.434 73.222 90.768 69.75 88.474C64.294 84.878 61.194 82.646 55.924 79.174C49.786 75.144 53.754 72.912 57.288 69.316C58.218 68.386 74.09 53.94 74.4 52.638C74.4431 52.4408 74.4373 52.2361 74.3833 52.0416C74.3293 51.8471 74.2286 51.6687 74.09 51.522C73.718 51.212 73.222 51.336 72.788 51.398C72.23 51.522 63.55 57.288 46.624 68.696C44.144 70.37 41.912 71.238 39.928 71.176C37.696 71.114 33.48 69.936 30.318 68.882C26.412 67.642 23.374 66.96 23.622 64.79C23.746 63.674 25.296 62.558 28.21 61.38C46.314 53.506 58.342 48.298 64.356 45.818C81.592 38.626 85.126 37.386 87.482 37.386C87.978 37.386 89.156 37.51 89.9 38.13C90.52 38.626 90.706 39.308 90.768 39.804C90.706 40.176 90.83 41.292 90.768 42.16Z" fill="url(#paint0_linear_2301_12)"/>
<defs>
<linearGradient id="paint0_linear_2301_12" x1="62" y1="0" x2="62" y2="124" gradientUnits="userSpaceOnUse">
<stop stop-color="#E9C566"/>
<stop offset="1" stop-color="#A88730"/>
</linearGradient>
</defs>
</svg>
